HIERARCHY
ROOT hip
{
  OFFSET 0 0 0
  CHANNELS 6 Xposition Yposition Zposition Zrotation Yrotation Xrotation
  JOINT abdomen
  {
    OFFSET 0 20.6881 -0.73152
    CHANNELS 3 Zrotation Xrotation Yrotation
    JOINT chest
    {
      OFFSET 0 11.7043 -0.48768
      CHANNELS 3 Zrotation Xrotation Yrotation
      JOINT neck
      {
        OFFSET 0 22.1894 -2.19456
        CHANNELS 3 Zrotation Xrotation Yrotation
        JOINT head
        {
          OFFSET -0.24384 7.07133 1.2192
          CHANNELS 3 Zrotation Xrotation Yrotation
          JOINT leftEye
          {
            OFFSET 4.14528 8.04674 8.04672
            CHANNELS 3 Zrotation Xrotation Yrotation
            End Site
            {
              OFFSET 1 0 0
            }
          }
          JOINT rightEye
          {
            OFFSET -3.6576 8.04674 8.04672
            CHANNELS 3 Zrotation Xrotation Yrotation
            End Site
            {
              OFFSET 1 0 0
            }
          }
        }
      }
      JOINT rCollar
      {
        OFFSET -2.68224 19.2634 -4.8768
        CHANNELS 3 Zrotation Xrotation Yrotation
        JOINT rShldr
        {
          OFFSET -8.77824 -1.95073 1.46304
          CHANNELS 3 Zrotation Xrotation Yrotation
          JOINT rForeArm
          {
            OFFSET -28.1742 -1.7115 0.48768
            CHANNELS 3 Zrotation Xrotation Yrotation
            JOINT rHand
            {
              OFFSET -22.5879 0.773209 7.07136
              CHANNELS 3 Zrotation Xrotation Yrotation
              JOINT rThumb1
              {
                OFFSET -1.2192 -0.487915 3.41376
                CHANNELS 3 Zrotation Xrotation Yrotation
                JOINT rThumb2
                {
                  OFFSET -3.37035 -0.52449 3.41376
                  CHANNELS 3 Zrotation Xrotation Yrotation
                  End Site
                  {
                    OFFSET -1.78271 -1.18214 1.43049
                  }
                }
              }
              JOINT rIndex1
              {
                OFFSET -7.75947 0.938293 5.60832
                CHANNELS 3 Zrotation Xrotation Yrotation
                JOINT rIndex2
                {
                  OFFSET -2.54057 -0.884171 1.56538
                  CHANNELS 3 Zrotation Xrotation Yrotation
                  End Site
                  {
                    OFFSET -1.62519 -0.234802 1.16502
                  }
                }
              }
              JOINT rMid1
              {
                OFFSET -8.24714 1.18213 3.41376
                CHANNELS 3 Zrotation Xrotation Yrotation
                JOINT rMid2
                {
                  OFFSET -3.10165 -0.590103 1.0647
                  CHANNELS 3 Zrotation Xrotation Yrotation
                  End Site
                  {
                    OFFSET -2.48547 -0.328903 0.83742
                  }
                }
              }
              JOINT rRing1
              {
                OFFSET -8.82822 0.546677 1.51678
                CHANNELS 3 Zrotation Xrotation Yrotation
                JOINT rRing2
                {
                  OFFSET -2.60934 -0.819778 -0.0198488
                  CHANNELS 3 Zrotation Xrotation Yrotation
                  End Site
                  {
                    OFFSET -2.33842 -0.294052 0.168128
                  }
                }
              }
              JOINT rPinky1
              {
                OFFSET -8.27202 -0.0477905 -0.4584
                CHANNELS 3 Zrotation Xrotation Yrotation
                JOINT rPinky2
                {
                  OFFSET -1.82734 -0.647385 -0.700984
                  CHANNELS 3 Zrotation Xrotation Yrotation
                  End Site
                  {
                    OFFSET -1.69225 -0.51767 -0.607171
                  }
                }
              }
            }
          }
        }
      }
      JOINT lCollar
      {
        OFFSET 2.68224 19.2634 -4.8768
        CHANNELS 3 Zrotation Xrotation Yrotation
        JOINT lShldr
        {
          OFFSET 8.77824 -1.95073 1.46304
          CHANNELS 3 Zrotation Xrotation Yrotation
          JOINT lForeArm
          {
            OFFSET 28.1742 -1.7115 0.48768
            CHANNELS 3 Zrotation Xrotation Yrotation
            JOINT lHand
            {
              OFFSET 22.5879 0.773209 7.07136
              CHANNELS 3 Zrotation Xrotation Yrotation
              JOINT lThumb1
              {
                OFFSET 1.2192 -0.487915 3.41376
                CHANNELS 3 Zrotation Xrotation Yrotation
                JOINT lThumb2
                {
                  OFFSET 3.37035 -0.52449 3.41376
                  CHANNELS 3 Zrotation Xrotation Yrotation
                  End Site
                  {
                    OFFSET 1.78271 -1.18214 1.43049
                  }
                }
              }
              JOINT lIndex1
              {
                OFFSET 7.75947 0.938293 5.60832
                CHANNELS 3 Zrotation Xrotation Yrotation
                JOINT lIndex2
                {
                  OFFSET 2.54057 -0.884171 1.56538
                  CHANNELS 3 Zrotation Xrotation Yrotation
                  End Site
                  {
                    OFFSET 1.62519 -0.234802 1.16502
                  }
                }
              }
              JOINT lMid1
              {
                OFFSET 8.24714 1.18213 3.41376
                CHANNELS 3 Zrotation Xrotation Yrotation
                JOINT lMid2
                {
                  OFFSET 3.10165 -0.590103 1.0647
                  CHANNELS 3 Zrotation Xrotation Yrotation
                  End Site
                  {
                    OFFSET 2.48547 -0.328903 0.83742
                  }
                }
              }
              JOINT lRing1
              {
                OFFSET 8.82822 0.546677 1.51678
                CHANNELS 3 Zrotation Xrotation Yrotation
                JOINT lRing2
                {
                  OFFSET 2.60934 -0.819778 -0.0198488
                  CHANNELS 3 Zrotation Xrotation Yrotation
                  End Site
                  {
                    OFFSET 2.33842 -0.294052 0.168128
                  }
                }
              }
              JOINT lPinky1
              {
                OFFSET 8.27202 -0.0477905 -0.4584
                CHANNELS 3 Zrotation Xrotation Yrotation
                JOINT lPinky2
                {
                  OFFSET 1.82734 -0.647385 -0.700984
                  CHANNELS 3 Zrotation Xrotation Yrotation
                  End Site
                  {
                    OFFSET 1.69225 -0.51767 -0.607171
                  }
                }
              }
            }
          }
        }
      }
    }
  }
  JOINT rButtock
  {
    OFFSET -8.77824 4.35084 1.2192
    CHANNELS 3 Zrotation Xrotation Yrotation
    JOINT rThigh
    {
      OFFSET 0 -1.70687 -2.19456
      CHANNELS 3 Zrotation Xrotation Yrotation
      JOINT rShin
      {
        OFFSET 0 -36.8199 0.73152
        CHANNELS 3 Zrotation Xrotation Yrotation
        JOINT rFoot
        {
          OFFSET 0.73152 -45.1104 -5.12064
          CHANNELS 3 Zrotation Xrotation Yrotation
          End Site
          {
            OFFSET -1.1221 -3.69964 12.103
          }
        }
      }
    }
  }
  JOINT lButtock
  {
    OFFSET 8.77824 4.35084 1.2192
    CHANNELS 3 Zrotation Xrotation Yrotation
    JOINT lThigh
    {
      OFFSET 0 -1.70687 -2.19456
      CHANNELS 3 Zrotation Xrotation Yrotation
      JOINT lShin
      {
        OFFSET 0 -36.8199 0.73152
        CHANNELS 3 Zrotation Xrotation Yrotation
        JOINT lFoot
        {
          OFFSET -0.73152 -45.1104 -5.12064
          CHANNELS 3 Zrotation Xrotation Yrotation
          End Site
          {
            OFFSET 1.1221 -3.69964 12.103
          }
        }
      }
    }
  }
}
MOTION
Frames:	6
Frame Time:	0.00833333
-45.592983 60.42133 -211.24675 -0.64571 -6.7468305 1.2092627 -5.813205 17.444681 4.934864 0.59853953 -12.648541 1.4931127 -4.2553396 16.161512 -5.1036325 3.015107 -37.708836 -7.2787423 0.05688369 0.12273769 -0.16234575 0.01888427 -0.08963953 -0.17425863 -0.03814701 -0.0072827726 0.08848088 38.603592 -10.164898 24.751913 -23.160772 -21.277737 52.734627 -7.794249 44.414654 -0.22698769 0.16077286 0.20531411 0.017238809 0.07693609 -0.053521864 -0.13105197 0.079806335 0.18275712 -0.035317875 7.608476 5.2360115 0.36333007 0.096390955 -0.0070634484 -0.07626061 2.9215188 1.2160271 0.13347118 -0.16394958 -0.06766421 -0.041868974 10.083935 0.8156386 -0.00690923 -0.101687536 0.076959714 0.22926626 2.1136425 -0.7902065 -0.23981881 0.03143537 0.04122163 -0.03389257 149.35406 84.13578 -79.159325 29.407127 -36.46916 -79.903915 -118.09348 -88.155464 -79.33182 0.16088752 -0.021593254 -0.050400145 0.08357101 0.019987265 -0.049350597 0.07638225 0.23870134 -0.15710671 -7.592104 5.5323286 -0.40732375 -0.12594505 0.16369773 0.09360384 -2.9822824 0.85345435 -0.21546595 0.15099128 0.031049104 0.12989798 -10.166624 0.47473693 0.037359152 -0.08726818 0.13445875 0.16778134 -2.0376635 -0.7541971 0.23855561 0.114276774 -0.1779538 0.19436517 -57.61928 -80.82577 -105.38868 2.2693324 81.841286 8.076325 -2.8082736 1.545607 -11.652978 0.013520168 -0.045000523 -0.08428933 30.375517 -32.9503 24.331789 2.784706 85.273674 -11.550957 7.8840704 -13.45685 20.91448
-45.338287 60.912827 -213.16846 -1.5249203 -3.2880316 0.31165493 -5.2960515 18.03664 5.721607 0.39728025 -12.905479 1.8378417 -4.409873 15.787076 -5.2761483 3.8952289 -37.706062 -7.439276 0.066407725 0.1577213 -0.19514379 -0.016396286 -0.1383532 -0.20385613 -0.054380964 0.05083226 0.030381018 38.60912 -8.393735 22.604929 -21.232178 -20.458258 51.14803 -10.965139 52.08424 -1.7708055 0.16334969 0.23233004 0.047451485 0.064393565 -0.106164515 -0.113420375 0.09028944 0.1469273 -0.051865887 7.603093 5.2293687 0.37241572 0.108595096 0.02804251 -0.1566503 2.9635458 1.1826721 0.122384265 -0.12292721 -0.07493318 -0.05452634 10.1016445 0.8442004 -0.020043025 -0.10148574 0.067146726 0.30943725 2.107687 -0.8155454 -0.20118779 -0.014151291 0.04584877 -0.008724842 94.362526 60.159092 -163.65205 29.783133 -37.030445 -80.89692 48.64117 -89.653694 127.87981 0.17130479 -0.014402223 -0.004163571 0.12620199 -0.005225522 -0.05360926 0.09741075 0.30309168 -0.08616338 -7.6483192 5.524427 -0.4034647 -0.1343548 0.17626421 0.12632853 -2.976451 0.9015083 -0.19425605 0.14534433 0.0111393565 0.15603755 -10.146988 0.44876322 0.006245856 -0.123594485 0.19448815 0.1692915 -2.053788 -0.7446064 0.30245808 0.11637169 -0.24817005 0.25686175 -53.528008 -82.15542 -106.02719 1.987885 80.32288 7.522634 -2.6591313 4.4014645 -11.579192 0.040120374 -0.043461252 -0.11638408 32.099438 -36.78891 26.089096 2.763164 88.9016 -14.587636 8.051183 -13.998433 22.086798
-45.677723 61.410942 -212.74011 -3.0695157 1.310187 -1.2154086 -5.32106 19.016668 6.290729 0.49328774 -13.3620405 2.1463764 -4.459405 15.4522 -4.9664664 4.4848943 -36.858837 -6.558278 0.08345735 0.16518913 -0.20152137 -0.056446128 -0.17023039 -0.21826078 -0.05051368 0.08582396 -0.008613451 39.95282 -7.8100214 20.495413 -18.613037 -19.561747 49.27407 -17.03333 61.0762 -5.496416 0.17311004 0.24352652 0.065723404 0.04178798 -0.13021453 -0.09145501 0.10859781 0.13185002 -0.07355573 7.6236954 5.236002 0.4054622 0.109487906 0.061826035 -0.21439084 2.9830718 1.1285195 0.12022026 -0.057800457 -0.074265026 -0.06739001 10.124107 0.8787422 -0.02772163 -0.10559292 0.07186893 0.3604321 2.0984852 -0.84554255 -0.1766861 -0.08644737 0.039001107 0.026884506 107.39906 40.229168 177.04315 29.82548 -37.56984 -81.637146 74.930664 -83.1594 112.549545 0.15071163 0.006057135 0.05625577 0.15685876 -0.017876487 -0.04979902 0.11162264 0.36064598 -0.0017165372 -7.7188044 5.501753 -0.3986216 -0.14515439 0.17499319 0.14053582 -2.9696689 0.9687106 -0.1669161 0.15432629 -0.01815489 0.1788331 -10.132976 0.44327873 -0.04832656 -0.1415006 0.25722018 0.16368796 -2.090426 -0.7291827 0.36628476 0.14644308 -0.3347186 0.28931394 -55.12177 -82.0186 -98.60599 2.2427068 78.64471 7.7387815 -2.1506288 6.8870983 -11.009901 0.06654846 -0.0515238 -0.12865967 34.308903 -41.096138 27.528915 -173.76201 88.055756 166.80093 8.168712 -15.395008 23.42971
-47.4253 60.92561 -210.03642 -5.9806113 7.7683167 -3.6936889 -5.9569664 20.418022 6.29657 0.8060906 -14.034853 2.3509808 -4.544193 15.225733 -4.3883123 4.784713 -35.215523 -4.971209 0.09006071 0.15839377 -0.18174504 -0.10005423 -0.16458696 -0.21626459 -0.029368568 0.087753884 -0.00807088 42.437935 -8.237827 18.800186 -15.966412 -18.80099 47.32098 -26.753595 67.97183 -12.740193 0.19895971 0.24198973 0.07850006 0.009878832 -0.1166812 -0.06111385 0.1311936 0.15710708 -0.10611648 7.6576495 5.2368593 0.45610338 0.097236 0.08680655 -0.2510672 2.979478 1.0794792 0.13342196 0.01973427 -0.07716787 -0.08674855 10.136837 0.9114405 -0.016588366 -0.10932192 0.097219005 0.3756806 2.0988605 -0.8733215 -0.17730431 -0.17580001 0.017311947 0.075205944 126.533195 33.25869 160.73839 29.741995 -38.08039 -82.408676 80.26777 -72.93771 113.820496 0.10345995 0.037157565 0.13827284 0.17127183 -0.012866142 -0.023883734 0.11334342 0.40654114 0.07291383 -7.803035 5.4597807 -0.39317152 -0.15247855 0.17085104 0.117803924 -2.958191 1.042339 -0.13389039 0.1746604 -0.050135493 0.19545108 -10.133977 0.45452446 -0.113228776 -0.1253457 0.309684 0.14864376 -2.145209 -0.7214662 0.43422785 0.2013609 -0.41610032 0.2960943 -62.59842 -80.49141 -86.03564 3.5261548 77.48861 9.262295 -1.124532 8.274355 -10.037825 0.084425926 -0.05780793 -0.12452545 37.297348 -45.084515 29.709738 -173.62953 85.52796 165.01715 8.50352 -17.28137 25.168232
-50.92167 58.86636 -205.70493 -10.801486 16.454506 -7.843805 -6.897828 21.799192 5.729458 1.2090282 -14.745618 2.5130563 -4.7774506 15.084287 -3.781478 4.9908 -33.131466 -3.2617493 0.06887716 0.1528802 -0.15043938 -0.13595697 -0.12308426 -0.201173 -0.008199808 0.06819981 0.0188101 45.168434 -9.306588 17.762741 -14.073952 -18.556456 45.957195 -35.452175 70.28161 -19.523561 0.24719639 0.23577493 0.100413024 -0.03457981 -0.08049108 -0.016481385 0.15928125 0.21425757 -0.15042818 7.6938324 5.224999 0.510662 0.06873295 0.10358072 -0.27860537 2.9643276 1.0549788 0.16033708 0.10369136 -0.09304638 -0.113092266 10.135496 0.94289255 0.010325349 -0.101104446 0.13715155 0.3598865 2.1124313 -0.903286 -0.19785127 -0.25635448 -0.016123813 0.13597468 146.43355 39.2475 148.57681 29.58455 -38.57057 -83.30214 83.862335 -62.49503 113.85625 0.035657488 0.06824762 0.23320319 0.16931784 0.008742771 0.026580395 0.104051225 0.4337681 0.11557553 -7.893022 5.3992605 -0.394961 -0.1469891 0.17950082 0.06479605 -2.9389434 1.1132149 -0.101594694 0.18966624 -0.074070446 0.20599915 -10.14999 0.47624484 -0.16959849 -0.07535634 0.3368609 0.12561919 -2.2044475 -0.7299128 0.50306386 0.25182787 -0.47803688 0.29999858 -70.931076 -78.917175 -76.64156 5.6642947 77.47832 11.741881 0.05993404 8.064524 -8.661476 0.08153432 -0.04490889 -0.11805096 40.81919 -48.05127 33.577747 -171.62244 83.569046 163.39098 9.466134 -19.342472 27.177256
-55.955303 55.720062 -200.6891 -18.02117 27.148613 -14.567377 -7.604827 22.607609 4.760374 1.6417115 -15.267575 2.6435986 -5.151643 14.950722 -3.320373 5.4113812 -31.183819 -1.9226689 0.013976461 0.156412 -0.12015816 -0.14831884 -0.06933389 -0.18102899 -0.0018505433 0.046427622 0.04799349 47.13482 -10.621608 17.107918 -13.413119 -19.144018 45.928165 -37.91048 68.83344 -20.902605 0.30938828 0.22293667 0.13245997 -0.09060988 -0.045204666 0.044455774 0.19543925 0.27386397 -0.19935724 7.730421 5.210855 0.56203634 0.03420841 0.118053466 -0.3044849 2.9374473 1.0547674 0.19674003 0.19020374 -0.1216376 -0.13302937 10.113 0.97410434 0.03737575 -0.07409946 0.17686279 0.32519326 2.1307266 -0.9405109 -0.22388928 -0.3040696 -0.0594509 0.19499394 164.07388 52.019127 144.1146 29.41962 -39.04414 -84.331955 86.305046 -55.679848 113.84339 -0.039238032 0.086629756 0.31678292 0.16384372 0.04755371 0.087956205 0.08580212 0.43330753 0.11833876 -7.9718 5.33328 -0.4097277 -0.12778288 0.20653482 0.008174871 -2.9199805 1.1662401 -0.075499706 0.18143128 -0.077515386 0.2182241 -10.173476 0.50470865 -0.2067678 -0.009474156 0.33121836 0.09942787 -2.2526183 -0.75175446 0.5610604 0.2685531 -0.51583457 0.3106956 -78.05734 -78.08324 -72.86751 8.52424 79.145584 14.963219 0.88043386 6.357812 -7.2126412 0.049644765 -0.01359888 -0.12581211 44.0844 -49.623096 38.982857 -166.45935 82.20779 160.48192 11.2529 -21.407608 28.97866
